<svg id="Layer_1" data-name="Layer 1" xmlns="http://www.w3.org/2000/svg" viewBox="0 0 73.6 73.6"><defs><style>.cls-1{fill:#fff;}.cls-2{fill:none;stroke:#fff;stroke-linecap:round;stroke-miterlimit:16;stroke-width:3.2px;}</style></defs><path class="cls-1" d="M30.5,20h0c1.38,0,2.5.73,2.5,1.63V58.37c0,.9-1.12,1.63-2.5,1.63h0c-1.38,0-2.5-.73-2.5-1.63V21.63C28,20.73,29.12,20,30.5,20Z" transform="translate(-3.88 -3.2)"/><path class="cls-1" d="M49.5,20h0A2.3,2.3,0,0,1,52,22V58a2.3,2.3,0,0,1-2.5,2h0A2.3,2.3,0,0,1,47,58V22A2.3,2.3,0,0,1,49.5,20Z" transform="translate(-3.88 -3.2)"/><path class="cls-2" d="M40.68,4.8A35.2,35.2,0,1,0,75.88,40h0A35.2,35.2,0,0,0,40.68,4.8Z" transform="translate(-3.88 -3.2)"/></svg>